<?xml version="1.0" encoding="UTF-8"?><svg xmlns="http://www.w3.org/2000/svg" xmlns:xlink="http://www.w3.org/1999/xlink" viewBox="0 0 48 48" version="1.1"><g id="surface1"><path d="M40 20c.39-1.734-.094-3.781-2.5-6-3.914 3.543-2.797 7.227-1.5 9 0 0-.164 1-4 1H2S.168 40 18 40c15.594 0 19.973-12.004 20.828-15.074.356.047.75.078 1.172.074 2.148-.016 4.93-1.172 6-5.484-2.84-.985-4.66-.54-6 .484z" fill="#03A9F4"/><path d="M2.164 28C2.898 32.738 5.984 40 18 40c12.184 0 17.523-7.328 19.684-12z" fill="#0288D1"/><path d="M19.813 39.938c-.922-.32-5.075-1.09-5.813-6.938-4.21 1.863-7.938 1.375-9.578 1.008C6.582 37.238 10.59 40 18 40c.621 0 1.223-.023 1.813-.063z" fill="#81D4FA"/><path d="M20 32a1.999 1.999 0 1 1-4 0 1.999 1.999 0 1 1 4 0z" fill="#FFF"/><path d="M14.914 33.598c.223.504.02 1.16-.512 1.316-3.3.973-6.144 1.102-8.297 1.102a12.427 12.427 0 0 1-1.656-1.961c2.586 0 6.711-.121 9.145-.965.523-.184 1.097 0 1.32.508zM2 27s1.875.125 3-1c1.875 1.688 5.941 1.09 7 0 1.063 1.688 6.938 1.375 8 0 1.25 1.438 6.625 1.75 8 0 .48 1.46 6.82 1.875 8 0 1.063 1.09 5.063 1.938 7.313 0C43.874 27.188 46 27 46 27v1H2m15 4c0 .55.45 1 1 1s1-.45 1-1-.45-1-1-1-1 .45-1 1z" fill="#37474F"/><path d="M11 24H6v-5h5zm10-5h-5v5h5zm10 0h-5v5h5zm-15-5h-5v5h5zm10 0h-5v5h5z" fill="#01579B"/><path d="M16 24h-5v-5h5zm10-5h-5v5h5zm0-10h-5v5h5zm-5 5h-5v5h5z" fill="#0288D1"/></g><metadata><rdf:RDF xmlns:rdf="http://www.w3.org/1999/02/22-rdf-syntax-ns#" xmlns:rdfs="http://www.w3.org/2000/01/rdf-schema#" xmlns:dc="http://purl.org/dc/elements/1.1/"><rdf:Description about="https://iconscout.com/legal#licenses" dc:title="docker" dc:description="docker" dc:publisher="Iconscout" dc:date="2017-12-15" dc:format="image/svg+xml" dc:language="en"><dc:creator><rdf:Bag><rdf:li>Icons8</rdf:li></rdf:Bag></dc:creator></rdf:Description></rdf:RDF></metadata></svg>