<?xml version="1.0" encoding="iso-8859-1"?>
<!-- Generator: Adobe Illustrator 21.0.0, SVG Export Plug-In . SVG Version: 6.00 Build 0)  -->
<svg version="1.1" id="Capa_1" xmlns="http://www.w3.org/2000/svg" xmlns:xlink="http://www.w3.org/1999/xlink" x="0px" y="0px"
	 viewBox="0 0 512 512" style="enable-background:new 0 0 512 512;" xml:space="preserve">
<polygon style="fill:#FD982C;" points="446.149,420.109 446.149,178.826 255.989,112.915 65.829,178.826 65.829,420.109 
	255.989,480.421 "/>
<polygon style="fill:#FA502E;" points="446.149,420.109 446.149,178.826 255.989,112.915 255.989,480.421 "/>
<polygon style="fill:#FFF2B4;" points="446.149,178.826 255.989,112.915 65.829,178.826 255.989,245.736 "/>
<polygon style="fill:#FFDF8E;" points="446.149,178.826 255.989,112.915 255.989,245.736 "/>
<g>
	<polygon style="fill:#FABE3D;" points="65.829,178.826 0,256.722 193.739,327.127 255.989,245.736 	"/>
	<polygon style="fill:#FABE3D;" points="446.149,178.826 512,256.722 318.261,327.127 255.989,245.736 	"/>
</g>
<polygon style="fill:#FD982C;" points="446.149,178.826 512,256.722 318.261,327.127 255.989,245.736 "/>
<polygon style="fill:#FDDA50;" points="65.829,178.826 0,101.985 193.739,31.579 255.989,112.915 "/>
<polygon style="fill:#FABE3D;" points="446.149,178.826 512,101.985 318.261,31.579 255.989,112.915 "/>
<g>
</g>
<g>
</g>
<g>
</g>
<g>
</g>
<g>
</g>
<g>
</g>
<g>
</g>
<g>
</g>
<g>
</g>
<g>
</g>
<g>
</g>
<g>
</g>
<g>
</g>
<g>
</g>
<g>
</g>
</svg>
